# xmcd
#
# Track frame offsets:
#	182
#	18467
#	32685
#	44885
#	72837
#	102792
#	114102
#	124905
#	140210
#	152150
#	164362
#	184092
#	199592
#	213522
#	227947
#	241442
#	255095
#	269620
#	287235
#	302147
#
# Disc length: 4186 seconds
#
# Revision: 0
# Processed by: cddbd v1.5.1PL0 Copyright (c) Steve Scherf et al.
# Submitted via: audiograbber 1.83.01
#
DISCID=2a105814
DTITLE=Little Milton - Tending his roots
DYEAR=1995
DGENRE=
TTITLE0=Feel so bad
TTITLE1=If walls could talk
TTITLE2=Life is like that
TTITLE3=Sweet sixteen
TTITLE4=I can't quit you baby
TTITLE5=I'm mighty grateful
TTITLE6=Don't talk back
TTITLE7=Reconsider baby
TTITLE8=Losing hand
TTITLE9=We're gonna make it
TTITLE10=Stormy Monday
TTITLE11=Blind man
TTITLE12=I'm gonna move to the outskirts of town
TTITLE13=Blues in the night
TTITLE14=Did you ever love a woman?
TTITLE15=Who cheating who?
TTITLE16=Blues get off my shoulder
TTITLE17=Things I used to do
TTITLE18=Don't deceive me
TTITLE19=Grits ain't groceries (all around the world)
EXTD=
EXTT0=
EXTT1=
EXTT2=
EXTT3=
EXTT4=
EXTT5=
EXTT6=
EXTT7=
EXTT8=
EXTT9=
EXTT10=
EXTT11=
EXTT12=
EXTT13=
EXTT14=
EXTT15=
EXTT16=
EXTT17=
EXTT18=
EXTT19=
PLAYORDER=
